<svg id="Capa_1" enable-background="new 0 0 511 511" height="512" viewBox="0 0 511 511" width="512" xmlns="http://www.w3.org/2000/svg"><g clip-rule="evenodd" fill-rule="evenodd"><path d="m445.5 100h-125v-85c0-8.284-6.716-15-15-15h-240c-8.284 0-15 6.716-15 15v381c0 8.284 6.716 15 15 15h125s.038 85.88.054 86.075c.553 7.78 7.025 13.925 14.946 13.925h240c8.284 0 15-6.716 15-15v-381c0-8.285-6.716-15-15-15zm-225 311h48.747l-48.747 48.67zm-140-381h210v351h-210zm350 451h-188.903s74.501-74.385 74.524-74.41c2.766-2.773 4.378-6.671 4.378-10.59v-266h110v351z"/><path d="m261 185.5c0-41.63-33.869-75.5-75.5-75.5s-75.5 33.87-75.5 75.5c0 24.826 19.428 60.941 27.781 75.316 29.16 50.184 42.644 50.184 47.719 50.184s18.56 0 47.719-50.184c8.354-14.375 27.781-50.49 27.781-75.316zm-50.809 55.124c-9.931 17.864-19.061 30.371-24.691 36.801-5.63-6.43-14.76-18.937-24.691-36.801-12.835-23.087-20.809-44.21-20.809-55.124 0-25.088 20.411-45.5 45.5-45.5s45.5 20.411 45.5 45.5c0 10.914-7.973 32.037-20.809 55.124z"/><path d="m185.501 170.5c-8.262 0-15 6.738-15 15 0 8.261 6.738 15 15 15 8.261 0 15-6.738 15-15s-6.739-15-15-15z"/></g></svg>